<svg width="14" height="15" viewBox="0 0 14 15" fill="none" xmlns="http://www.w3.org/2000/svg">
<g id="Vector">
<path d="M7.00472 0.0273438C8.13714 0.0273438 9.26524 0.30669 10.2676 0.835166C13.6803 2.63581 14.9927 6.87719 13.1933 10.291C11.9659 12.6189 9.54942 14.0273 6.99671 14.0273C6.498 14.0273 5.99436 13.9737 5.49319 13.8627C5.21085 13.7998 5.0327 13.5198 5.09496 13.2374C5.15722 12.955 5.43647 12.778 5.72066 12.839C8.32762 13.4187 11.019 12.1675 12.2661 9.802C13.7961 6.9 12.6804 3.29317 9.77874 1.76262C8.92681 1.31308 7.96761 1.07566 7.0041 1.07566H6.99732C3.71719 1.07566 1.04797 3.74518 1.04797 7.02642C1.04674 7.98224 1.27975 8.93374 1.72175 9.77918L1.85613 10.0419C2.02073 10.3502 2.0571 10.7332 1.95045 11.0797C1.80312 11.4682 1.68045 11.8462 1.57935 12.2224C1.97264 12.104 2.45286 11.9295 2.79992 11.8031L2.94232 11.7519C3.21171 11.6514 3.51438 11.7938 3.61301 12.0664C3.71165 12.3383 3.57048 12.6392 3.29863 12.7373L3.15807 12.7885L3.13415 12.7971C2.61738 12.9844 1.92154 13.2366 1.44928 13.3422C1.40859 13.3509 1.36482 13.3564 1.32475 13.3552C1.00297 13.3552 0.806937 13.2251 0.699058 13.1153C0.533233 12.947 0.454327 12.7108 0.463574 12.4135C0.464807 12.3796 0.469122 12.3445 0.477136 12.3106C0.601659 11.7802 0.763785 11.2511 0.959816 10.7387C0.973994 10.6888 0.965364 10.5981 0.925295 10.5223L0.790292 10.2602C0.273091 9.26982 -0.00122876 8.14935 4.13761e-06 7.0258C4.13761e-06 3.16675 3.13897 0.0273438 6.99671 0.0273438H7.00472Z" fill="white"/>
<path d="M3.08244 7.02673C3.08244 6.56732 3.45539 6.19424 3.91464 6.19424C4.3739 6.19424 4.74685 6.56732 4.74685 7.02673C4.74685 7.48552 4.3739 7.8586 3.91464 7.8586C3.45539 7.8586 3.08244 7.48552 3.08244 7.02673Z" fill="white"/>
<path d="M7.82916 7.02648C7.82916 6.56769 7.45621 6.19399 6.99695 6.19399C6.5377 6.19399 6.16475 6.56769 6.16475 7.02648C6.16475 7.48527 6.5377 7.85897 6.99695 7.85897C7.45621 7.85897 7.82916 7.48527 7.82916 7.02648Z" fill="white"/>
<path d="M10.0792 6.19399C10.5385 6.19399 10.9114 6.56769 10.9114 7.02648C10.9114 7.48527 10.5385 7.85897 10.0792 7.85897C9.61995 7.85897 9.24699 7.48527 9.24699 7.02648C9.24699 6.56769 9.61995 6.19399 10.0792 6.19399Z" fill="white"/>
</g>
</svg>
