<svg xmlns="http://www.w3.org/2000/svg" width="886" height="194" viewBox="0 0 886 194" fill="none">
  <path d="M132.316 180.796C119.206 180.796 105.649 178.059 91.6476 172.586C77.7732 167.241 64.9807 159.477 53.2702 149.295C36.85 144.84 23.8666 136.44 14.3199 124.094C4.77331 111.748 0 96.4753 0 78.2748C0 63.3835 3.18221 50.465 9.54663 39.5192C15.911 28.4462 24.8212 19.8551 36.2772 13.7458C47.7331 7.63657 61.0348 4.58194 76.1821 4.58194C91.4567 4.58194 104.758 7.63657 116.087 13.7458C127.543 19.8551 136.453 28.4462 142.818 39.5192C149.182 50.465 152.364 63.3835 152.364 78.2748C152.364 91.0024 150.009 102.33 145.3 112.258C140.59 122.185 133.971 130.394 125.443 136.885C117.042 143.249 107.05 147.64 95.4663 150.059C103.995 156.677 112.841 161.704 122.006 165.141C131.298 168.577 140.272 170.295 148.927 170.295C158.092 170.295 166.175 168.386 173.176 164.568L172.985 166.668C168.148 171.505 162.229 175.068 155.228 177.359C148.227 179.65 140.59 180.796 132.316 180.796ZM76.1821 148.913C82.8011 148.913 88.7836 147.258 94.1297 143.949C99.6031 140.513 104.313 135.676 108.259 129.44C112.077 123.331 115.005 115.949 117.042 107.294C119.206 98.5117 120.287 88.8387 120.287 78.2748C120.287 67.5836 119.206 57.847 117.042 49.0649C115.005 40.2829 112.077 32.7736 108.259 26.5371C104.313 20.4278 99.6031 15.655 94.1297 12.2185C88.7836 8.78205 82.8011 7.06383 76.1821 7.06383C69.5631 7.06383 63.5169 8.78205 58.0435 12.2185C52.6974 15.655 48.115 20.4278 44.2963 26.5371C40.4777 32.7736 37.4864 40.2829 35.3225 49.0649C33.2859 57.847 32.2676 67.5836 32.2676 78.2748C32.2676 92.4025 34.0496 104.812 37.6137 115.503C41.3051 126.067 46.4603 134.276 53.0792 140.131C59.6982 145.986 67.3992 148.913 76.1821 148.913Z" fill="url(#paint0_linear_312_190)"/>
  <path d="M232.868 155.786L232.677 131.158C229.367 137.649 224.339 142.931 217.593 147.004C210.847 151.077 203.719 153.113 196.209 153.113C187.68 153.113 180.807 150.313 175.588 144.713C170.496 139.113 167.951 131.731 167.951 122.567V70.6383C167.951 65.8018 166.996 62.0471 165.087 59.3743C163.177 56.7015 158.977 55.3651 152.485 55.3651V53.456H171.769C178.261 53.456 183.225 52.756 186.662 51.3559C189.844 49.9559 192.072 48.2377 193.345 46.2012H195.254V124.476C195.254 130.84 196.527 135.931 199.073 139.749C201.618 143.567 204.928 145.477 209.001 145.477C212.947 145.477 217.02 143.822 221.221 140.513C225.421 137.076 229.113 132.494 232.295 126.767V70.6383C232.295 66.0563 231.149 62.3653 228.858 59.5652C226.567 56.7652 222.621 55.3651 217.02 55.3651V53.456H236.304C242.796 53.456 247.76 52.756 251.197 51.3559C254.507 49.9559 256.798 48.2377 258.071 46.2012H259.98L259.789 133.258C259.789 137.84 261.189 141.595 263.99 144.522C266.79 147.322 270.481 148.722 275.064 148.722V150.44H256.161C252.852 150.44 249.924 150.504 247.378 150.631C244.833 150.886 242.732 151.14 241.078 151.395C237.641 152.159 235.222 153.622 233.822 155.786H232.868Z" fill="url(#paint1_linear_312_190)"/>
  <path d="M301.706 153.113C293.942 153.113 287.704 151.013 282.995 146.813C278.285 142.613 275.93 137.076 275.93 130.203C275.93 127.276 276.439 124.54 277.458 121.994C278.476 119.321 280.385 116.712 283.186 114.167C286.113 111.621 290.123 109.012 295.215 106.339C300.306 103.539 307.052 100.612 315.453 97.5572L333.21 91.0661V76.7475C333.21 69.4928 332.064 63.7653 329.773 59.5652C327.482 55.2378 324.3 53.0741 320.227 53.0741C315.39 53.2014 311.253 56.3833 307.816 62.6199C304.507 68.8564 302.279 77.5112 301.133 88.5842L280.513 76.7475C282.677 71.5292 285.986 66.9472 290.441 63.0017C294.896 59.0561 299.988 56.0015 305.716 53.8378C311.571 51.6741 317.681 50.5923 324.045 50.5923C334.865 50.5923 343.648 53.6469 350.394 59.7561C357.268 65.7381 360.704 73.9474 360.704 84.3841V130.394C360.704 137.776 363.186 141.467 368.151 141.467C371.078 141.467 373.942 139.876 376.743 136.695L378.27 138.031C374.961 142.486 370.951 146.113 366.241 148.913C361.532 151.713 356.949 153.113 352.494 153.113C347.657 153.113 343.457 151.459 339.893 148.149C336.456 144.84 334.292 140.449 333.401 134.976C327.164 141.34 321.69 145.986 316.981 148.913C312.398 151.713 307.307 153.113 301.706 153.113ZM316.026 141.277C318.826 141.277 321.5 140.576 324.045 139.176C326.718 137.776 329.71 135.485 333.019 132.304L333.21 93.548L325.573 96.4117C319.081 98.8299 314.117 101.312 310.68 103.857C307.243 106.276 304.825 109.012 303.425 112.067C302.152 115.121 301.515 118.621 301.515 122.567C301.515 128.04 302.852 132.558 305.525 136.122C308.325 139.558 311.826 141.277 316.026 141.277Z" fill="url(#paint2_linear_312_190)"/>
  <path d="M374.454 150.44V148.531H374.645C379.228 148.531 382.919 147.131 385.719 144.331C388.52 141.531 389.92 137.84 389.92 133.258V70.6383C389.92 65.8018 388.902 62.0471 386.865 59.3743C384.956 56.7015 380.819 55.3651 374.454 55.3651V53.456H393.357C399.848 53.456 404.813 52.756 408.249 51.3559C411.432 49.9559 413.659 48.2377 414.932 46.2012H416.841L417.032 72.9292C420.342 66.3109 425.37 60.9653 432.116 56.8924C438.862 52.8196 445.991 50.7832 453.501 50.7832C462.029 50.7832 468.839 53.5832 473.93 59.1834C479.149 64.7835 481.759 72.1656 481.759 81.3294V133.258C481.759 137.84 483.159 141.531 485.959 144.331C488.759 147.131 492.451 148.531 497.033 148.531H497.224V150.44H438.99V148.531H439.181C443.763 148.531 447.454 147.131 450.255 144.331C453.055 141.531 454.455 137.84 454.455 133.258V79.4203C454.455 73.0565 453.182 67.9655 450.637 64.1472C448.218 60.3289 444.972 58.4197 440.899 58.4197C436.953 58.4197 432.816 60.138 428.488 63.5744C424.288 66.8836 420.596 71.4019 417.414 77.1293V133.258C417.414 137.84 418.814 141.531 421.615 144.331C424.415 147.131 428.107 148.531 432.689 148.531H432.88V150.44H374.454Z" fill="url(#paint3_linear_312_190)"/>
  <path d="M566.409 157.695L566.218 130.585C563.163 137.204 558.581 142.677 552.471 147.004C546.361 151.204 539.806 153.304 532.805 153.304C525.931 153.304 519.758 151.14 514.284 146.813C508.811 142.486 504.483 136.567 501.301 129.058C498.119 121.421 496.527 112.83 496.527 103.285C496.527 92.5934 498.5 83.3022 502.446 75.4111C506.52 67.52 512.12 61.4744 519.248 57.2743C526.377 52.9469 534.587 50.7832 543.879 50.7832C549.098 50.7832 553.362 51.6105 556.671 53.2651C559.981 54.7924 562.972 57.4652 565.645 61.2835V24.437C565.645 19.8551 564.181 16.1641 561.254 13.364C558.453 10.5639 554.762 9.16389 550.18 9.16389V7.25474H569.655C576.019 7.25474 580.856 6.61836 584.165 5.3456C587.475 4.07284 589.83 2.29097 591.23 0H593.139V133.258C593.139 137.84 594.539 141.531 597.34 144.331C600.14 147.131 603.895 148.531 608.605 148.531V150.44H589.13C583.529 150.44 579.074 151.013 575.764 152.159C572.582 153.304 570.1 155.15 568.318 157.695H566.409ZM543.306 145.668C546.234 145.668 549.161 144.777 552.089 142.995C555.144 141.086 557.88 138.604 560.299 135.549C562.717 132.494 564.499 129.249 565.645 125.812V79.2294C565.009 71.5928 563.099 65.4836 559.917 60.9016C556.862 56.3197 552.853 54.0287 547.888 54.0287C541.269 54.0287 536.114 58.2288 532.423 66.6291C528.859 75.0293 527.077 87.4387 527.077 103.857C527.077 131.731 532.486 145.668 543.306 145.668Z" fill="url(#paint4_linear_312_190)"/>
  <path d="M635.279 153.113C627.514 153.113 621.277 151.013 616.567 146.813C611.858 142.613 609.503 137.076 609.503 130.203C609.503 127.276 610.012 124.54 611.03 121.994C612.049 119.321 613.958 116.712 616.758 114.167C619.686 111.621 623.695 109.012 628.787 106.339C633.879 103.539 640.625 100.612 649.026 97.5572L666.783 91.0661V76.7475C666.783 69.4928 665.637 63.7653 663.346 59.5652C661.055 55.2378 657.872 53.0741 653.799 53.0741C648.962 53.2014 644.825 56.3833 641.389 62.6199C638.079 68.8564 635.852 77.5112 634.706 88.5842L614.085 76.7475C616.249 71.5292 619.559 66.9472 624.014 63.0017C628.469 59.0561 633.56 56.0015 639.288 53.8378C645.144 51.6741 651.253 50.5923 657.618 50.5923C668.437 50.5923 677.22 53.6469 683.966 59.7561C690.84 65.7381 694.277 73.9474 694.277 84.3841V130.394C694.277 137.776 696.759 141.467 701.723 141.467C704.651 141.467 707.515 139.876 710.315 136.695L711.843 138.031C708.533 142.486 704.524 146.113 699.814 148.913C695.104 151.713 690.522 153.113 686.067 153.113C681.23 153.113 677.029 151.459 673.465 148.149C670.028 144.84 667.865 140.449 666.974 134.976C660.736 141.34 655.263 145.986 650.553 148.913C645.971 151.713 640.879 153.113 635.279 153.113ZM649.599 141.277C652.399 141.277 655.072 140.576 657.618 139.176C660.291 137.776 663.282 135.485 666.592 132.304L666.783 93.548L659.145 96.4117C652.654 98.8299 647.689 101.312 644.253 103.857C640.816 106.276 638.397 109.012 636.997 112.067C635.724 115.121 635.088 118.621 635.088 122.567C635.088 128.04 636.424 132.558 639.097 136.122C641.898 139.558 645.398 141.277 649.599 141.277Z" fill="url(#paint5_linear_312_190)"/>
  <path d="M708.027 150.44V148.531H708.218C712.8 148.531 716.492 147.131 719.292 144.331C722.092 141.531 723.492 137.84 723.492 133.258V70.6383C723.492 65.8018 722.474 62.0471 720.438 59.3743C718.528 56.7015 714.391 55.3651 708.027 55.3651V53.456H726.929C733.676 53.456 738.767 52.8196 742.204 51.5468C745.641 50.1468 748.059 48.3649 749.459 46.2012H750.414L750.605 77.5112C752.26 73.6929 754.36 69.6837 756.906 65.4836C759.579 61.2835 762.888 57.7834 766.834 54.9833C770.907 52.0559 775.744 50.5923 781.345 50.5923C783.254 50.5923 785.291 50.7832 787.455 51.165C789.619 51.5468 791.91 52.2468 794.329 53.2651L786.882 75.602C782.3 73.0565 778.29 71.2746 774.853 70.2564C771.544 69.2382 768.616 68.7291 766.07 68.7291C761.743 68.7291 758.497 70.0655 756.333 72.7383C754.296 75.4111 752.514 78.593 750.987 82.284V133.258C750.987 137.84 752.387 141.531 755.187 144.331C757.988 147.131 761.679 148.531 766.261 148.531H766.452V150.44H708.027Z" fill="url(#paint6_linear_312_190)"/>
  <path d="M795.689 193.205C790.47 193.205 785.442 192.187 780.605 190.151L788.052 167.814C791.234 169.086 794.67 170.168 798.362 171.059C802.181 171.95 805.999 172.396 809.818 172.396C814.655 172.396 819.174 171.377 823.374 169.341C827.702 167.432 830.948 163.804 833.112 158.459L835.212 153.304L797.407 65.6745C796.134 62.6199 794.48 60.2016 792.443 58.4197C790.279 56.5106 787.351 55.4924 783.66 55.3651V53.456H838.84V55.3651C835.403 55.7469 832.73 56.9561 830.82 58.9925C829.038 61.0289 828.147 63.6381 828.147 66.82C828.147 69.62 828.784 72.4838 830.057 75.4111L849.341 120.658L868.625 75.4111C869.898 72.4838 870.534 69.62 870.534 66.82C870.534 63.6381 869.58 61.0289 867.67 58.9925C865.888 56.9561 863.215 55.7469 859.651 55.3651V53.456H886V55.3651C883.072 56.0015 880.59 57.9106 878.554 61.0925C876.517 64.1472 874.353 68.3473 872.062 73.6929L833.112 164.186C829.038 173.605 823.756 180.796 817.264 185.76C810.773 190.723 803.581 193.205 795.689 193.205Z" fill="url(#paint7_linear_312_190)"/>
  <defs>
    <linearGradient id="paint0_linear_312_190" x1="867.708" y1="-64.5923" x2="-163.5" y2="292.5" gradientUnits="userSpaceOnUse">
      <stop stop-color="#FF007C"/>
      <stop offset="0.25" stop-color="#FFA40D"/>
      <stop offset="0.536554" stop-color="#00EBFF"/>
      <stop offset="0.824946" stop-color="#0443FB"/>
    </linearGradient>
    <linearGradient id="paint1_linear_312_190" x1="867.708" y1="-64.5923" x2="-163.5" y2="292.5" gradientUnits="userSpaceOnUse">
      <stop stop-color="#FF007C"/>
      <stop offset="0.25" stop-color="#FFA40D"/>
      <stop offset="0.536554" stop-color="#00EBFF"/>
      <stop offset="0.824946" stop-color="#0443FB"/>
    </linearGradient>
    <linearGradient id="paint2_linear_312_190" x1="867.708" y1="-64.5923" x2="-163.5" y2="292.5" gradientUnits="userSpaceOnUse">
      <stop stop-color="#FF007C"/>
      <stop offset="0.25" stop-color="#FFA40D"/>
      <stop offset="0.536554" stop-color="#00EBFF"/>
      <stop offset="0.824946" stop-color="#0443FB"/>
    </linearGradient>
    <linearGradient id="paint3_linear_312_190" x1="867.708" y1="-64.5923" x2="-163.5" y2="292.5" gradientUnits="userSpaceOnUse">
      <stop stop-color="#FF007C"/>
      <stop offset="0.25" stop-color="#FFA40D"/>
      <stop offset="0.536554" stop-color="#00EBFF"/>
      <stop offset="0.824946" stop-color="#0443FB"/>
    </linearGradient>
    <linearGradient id="paint4_linear_312_190" x1="867.708" y1="-64.5923" x2="-163.5" y2="292.5" gradientUnits="userSpaceOnUse">
      <stop stop-color="#FF007C"/>
      <stop offset="0.25" stop-color="#FFA40D"/>
      <stop offset="0.536554" stop-color="#00EBFF"/>
      <stop offset="0.824946" stop-color="#0443FB"/>
    </linearGradient>
    <linearGradient id="paint5_linear_312_190" x1="867.708" y1="-64.5923" x2="-163.5" y2="292.5" gradientUnits="userSpaceOnUse">
      <stop stop-color="#FF007C"/>
      <stop offset="0.25" stop-color="#FFA40D"/>
      <stop offset="0.536554" stop-color="#00EBFF"/>
      <stop offset="0.824946" stop-color="#0443FB"/>
    </linearGradient>
    <linearGradient id="paint6_linear_312_190" x1="867.708" y1="-64.5923" x2="-163.5" y2="292.5" gradientUnits="userSpaceOnUse">
      <stop stop-color="#FF007C"/>
      <stop offset="0.25" stop-color="#FFA40D"/>
      <stop offset="0.536554" stop-color="#00EBFF"/>
      <stop offset="0.824946" stop-color="#0443FB"/>
    </linearGradient>
    <linearGradient id="paint7_linear_312_190" x1="867.708" y1="-64.5923" x2="-163.5" y2="292.5" gradientUnits="userSpaceOnUse">
      <stop stop-color="#FF007C"/>
      <stop offset="0.25" stop-color="#FFA40D"/>
      <stop offset="0.536554" stop-color="#00EBFF"/>
      <stop offset="0.824946" stop-color="#0443FB"/>
    </linearGradient>
  </defs>
</svg>