<svg width="21" height="21" viewBox="0 0 21 21" fill="none" xmlns="http://www.w3.org/2000/svg">
<path id="Vector" d="M11.5286 0.513672C12.6536 0.516672 13.2246 0.522672 13.7176 0.536672L13.9116 0.543672C14.1356 0.551672 14.3566 0.561672 14.6236 0.573672C15.6876 0.623672 16.4136 0.791672 17.0506 1.03867C17.7106 1.29267 18.2666 1.63667 18.8226 2.19167C19.3313 2.6914 19.7248 3.29614 19.9756 3.96367C20.2226 4.60067 20.3906 5.32667 20.4406 6.39167C20.4526 6.65767 20.4626 6.87867 20.4706 7.10367L20.4766 7.29767C20.4916 7.78967 20.4976 8.36067 20.4996 9.48567L20.5006 10.2317V11.5417C20.503 12.2711 20.4953 13.0005 20.4776 13.7297L20.4716 13.9237C20.4636 14.1487 20.4536 14.3697 20.4416 14.6357C20.3916 15.7007 20.2216 16.4257 19.9756 17.0637C19.7248 17.7312 19.3313 18.3359 18.8226 18.8357C18.3228 19.3444 17.7181 19.7379 17.0506 19.9887C16.4136 20.2357 15.6876 20.4037 14.6236 20.4537L13.9116 20.4837L13.7176 20.4897C13.2246 20.5037 12.6536 20.5107 11.5286 20.5127L10.7826 20.5137H9.47357C8.74383 20.5162 8.01409 20.5086 7.28457 20.4907L7.09057 20.4847C6.85318 20.4757 6.61584 20.4653 6.37857 20.4537C5.31457 20.4037 4.58857 20.2357 3.95057 19.9887C3.2834 19.7377 2.67901 19.3442 2.17957 18.8357C1.67051 18.336 1.27668 17.7313 1.02557 17.0637C0.778569 16.4267 0.610569 15.7007 0.560569 14.6357L0.530569 13.9237L0.525569 13.7297C0.507135 13.0005 0.498801 12.2711 0.500569 11.5417V9.48567C0.497801 8.75627 0.505135 8.02687 0.522569 7.29767L0.529569 7.10367C0.537569 6.87867 0.547569 6.65767 0.559569 6.39167C0.609569 5.32667 0.777569 4.60167 1.02457 3.96367C1.27626 3.29587 1.67079 2.69111 2.18057 2.19167C2.67972 1.68322 3.28376 1.28975 3.95057 1.03867C4.58857 0.791672 5.31357 0.623672 6.37857 0.573672C6.64457 0.561672 6.86657 0.551672 7.09057 0.543672L7.28457 0.537672C8.01376 0.519905 8.74316 0.512237 9.47257 0.514672L11.5286 0.513672ZM10.5006 5.51367C9.17449 5.51367 7.90272 6.04046 6.96503 6.97814C6.02735 7.91582 5.50057 9.18759 5.50057 10.5137C5.50057 11.8398 6.02735 13.1115 6.96503 14.0492C7.90272 14.9869 9.17449 15.5137 10.5006 15.5137C11.8267 15.5137 13.0984 14.9869 14.0361 14.0492C14.9738 13.1115 15.5006 11.8398 15.5006 10.5137C15.5006 9.18759 14.9738 7.91582 14.0361 6.97814C13.0984 6.04046 11.8267 5.51367 10.5006 5.51367ZM10.5006 7.51367C10.8945 7.51361 11.2847 7.59114 11.6487 7.74184C12.0127 7.89255 12.3434 8.11347 12.622 8.392C12.9007 8.67053 13.1217 9.00121 13.2725 9.36516C13.4233 9.72911 13.501 10.1192 13.5011 10.5132C13.5011 10.9071 13.4236 11.2973 13.2729 11.6613C13.1222 12.0253 12.9013 12.356 12.6227 12.6346C12.3442 12.9133 12.0135 13.1343 11.6496 13.2851C11.2856 13.4359 10.8955 13.5136 10.5016 13.5137C9.70592 13.5137 8.94286 13.1976 8.38025 12.635C7.81764 12.0724 7.50157 11.3093 7.50157 10.5137C7.50157 9.71802 7.81764 8.95496 8.38025 8.39235C8.94286 7.82974 9.70592 7.51367 10.5016 7.51367M15.7516 4.01367C15.42 4.01367 15.1021 4.14537 14.8677 4.37979C14.6333 4.61421 14.5016 4.93215 14.5016 5.26367C14.5016 5.59519 14.6333 5.91314 14.8677 6.14756C15.1021 6.38198 15.42 6.51367 15.7516 6.51367C16.0831 6.51367 16.401 6.38198 16.6355 6.14756C16.8699 5.91314 17.0016 5.59519 17.0016 5.26367C17.0016 4.93215 16.8699 4.61421 16.6355 4.37979C16.401 4.14537 16.0831 4.01367 15.7516 4.01367Z" fill="white"/>
</svg>
