<svg width="21" height="17" viewBox="0 0 21 17" fill="none" xmlns="http://www.w3.org/2000/svg">
<path id="Vector" d="M18.501 14.5137H16.501V5.76367L10.501 9.51367L4.50098 5.76367V14.5137H2.50098V2.51367H3.70098L10.501 6.76367L17.301 2.51367H18.501M18.501 0.513672H2.50098C1.39098 0.513672 0.500977 1.40367 0.500977 2.51367V14.5137C0.500977 15.0441 0.71169 15.5528 1.08676 15.9279C1.46184 16.303 1.97054 16.5137 2.50098 16.5137H18.501C19.0314 16.5137 19.5401 16.303 19.9152 15.9279C20.2903 15.5528 20.501 15.0441 20.501 14.5137V2.51367C20.501 1.98324 20.2903 1.47453 19.9152 1.09946C19.5401 0.724385 19.0314 0.513672 18.501 0.513672Z" fill="white"/>
</svg>
